HIERARCHY
ROOT SpineBase
{
  OFFSET 0.000000 0.000000 0.000000
  CHANNELS 6 Xposition Yposition Zposition Zrotation Xrotation Yrotation
  JOINT SpineMid
  {
    OFFSET 0.000000 29.625716 0.000000
    CHANNELS 3 Zrotation Xrotation Yrotation
    JOINT SpineShoulder
    {
      OFFSET -0.067480 22.223185 -0.810009
      CHANNELS 3 Zrotation Xrotation Yrotation
      JOINT Neck
      {
        OFFSET -0.069608 7.416219 -0.584989
        CHANNELS 3 Zrotation Xrotation Yrotation
        JOINT Head
        {
          OFFSET 5.294788 10.424948 -2.332126
          CHANNELS 3 Zrotation Xrotation Yrotation
          End Site
          {
            OFFSET 0 0 0
          }
        }
      }
      JOINT ShoulderLeft
      {
        OFFSET -12.752706 0.221045 -8.515439
        CHANNELS 3 Zrotation Xrotation Yrotation
        JOINT ElbowLeft
        {
          OFFSET -4.996507 -18.866818 -9.000407
          CHANNELS 3 Zrotation Xrotation Yrotation
          JOINT WristLeft
          {
            OFFSET 12.301431 -19.513783 -4.952640
            CHANNELS 3 Zrotation Xrotation Yrotation
            JOINT HandLeft
            {
              OFFSET 3.265922 -4.538561 0.835797
              CHANNELS 3 Zrotation Xrotation Yrotation
              JOINT HandTipLeft
              {
                OFFSET 2.565079 -6.265428 -2.725727
                CHANNELS 3 Zrotation Xrotation Yrotation
                End Site
                {
                  OFFSET 0 0 0
                }
              }
              JOINT ThumbLeft
              {
                OFFSET -0.653133 0.778811 5.655995
                CHANNELS 3 Zrotation Xrotation Yrotation
                End Site
                {
                  OFFSET 0 0 0
                }
              }
            }
          }
        }
      }
      JOINT ShoulderRight
      {
        OFFSET 14.843902 -6.412264 6.954139
        CHANNELS 3 Zrotation Xrotation Yrotation
        JOINT ElbowRight
        {
          OFFSET 3.379221 -28.281354 -0.845244
          CHANNELS 3 Zrotation Xrotation Yrotation
          JOINT WristRight
          {
            OFFSET 8.468203 -22.991249 -10.586926
            CHANNELS 3 Zrotation Xrotation Yrotation
            JOINT HandRight
            {
              OFFSET -0.429477 -5.082649 -2.189738
              CHANNELS 3 Zrotation Xrotation Yrotation
              JOINT HandTipRight
              {
                OFFSET -0.106299 -7.273910 -0.598487
                CHANNELS 3 Zrotation Xrotation Yrotation
                End Site
                {
                  OFFSET 0 0 0
                }
              }
              JOINT ThumbRight
              {
                OFFSET -3.722550 0.183765 0.746949
                CHANNELS 3 Zrotation Xrotation Yrotation
                End Site
                {
                  OFFSET 0 0 0
                }
              }
            }
          }
        }
      }
    }
  }
  JOINT HipLeft
  {
    OFFSET -5.820971 2.352537 -6.381216
    CHANNELS 3 Zrotation Xrotation Yrotation
    JOINT KneeLeft
    {
      OFFSET -5.802562 -23.838505 -1.759585
      CHANNELS 3 Zrotation Xrotation Yrotation
      JOINT AnkleLeft
      {
        OFFSET -8.521282 -33.957289 4.996451
        CHANNELS 3 Zrotation Xrotation Yrotation
        JOINT FootLeft
        {
          OFFSET 4.504611 -2.952250 -11.777688
          CHANNELS 3 Zrotation Xrotation Yrotation
          End Site
          {
            OFFSET 0 0 0
          }
        }
      }
    }
  }
  JOINT HipRight
  {
    OFFSET 5.235509 0.190544 -0.092331
    CHANNELS 3 Zrotation Xrotation Yrotation
    JOINT KneeRight
    {
      OFFSET -3.138825 -23.834100 -3.841819
      CHANNELS 3 Zrotation Xrotation Yrotation
      JOINT AnkleRight
      {
        OFFSET -4.785911 -28.907020 7.419211
        CHANNELS 3 Zrotation Xrotation Yrotation
        JOINT FootRight
        {
          OFFSET 4.654049 -2.840952 -12.016495
          CHANNELS 3 Zrotation Xrotation Yrotation
          End Site
          {
            OFFSET 0 0 0
          }
        }
      }
    }
  }
}
MOTION
Frames: 10
Frame Time: 0.033333
33.099533 59.859434 369.342844 -0.000000 0.000000 -29.631059 -0.000000 0.000000 29.631059 -0.000000 0.000000 0.000000 -0.000000 0.000000 0.000000 0.000000 0.000000 0.000000 -0.000000 0.000000 0.000000 -0.000000 0.000000 0.000000 -0.000000 0.000000 0.000000 -0.000000 0.000000 0.000000 0.000000 0.000000 0.000000 0.000000 0.000000 0.000000 -0.000000 0.000000 0.000000 -0.000000 0.000000 0.000000 -0.000000 0.000000 0.000000 -0.000000 0.000000 0.000000 0.000000 0.000000 0.000000 0.000000 0.000000 0.000000 -0.000000 0.000000 29.631059 -0.000000 0.000000 0.000000 -0.000000 0.000000 0.000000 0.000000 0.000000 0.000000 -0.000000 0.000000 29.631059 -0.000000 0.000000 0.000000 -0.000000 0.000000 0.000000 0.000000 0.000000 0.000000
32.979956 60.091507 368.975687 -0.070727 0.292455 -29.692889 0.206309 -0.219018 29.693464 -0.000000 0.000000 0.000000 -0.000000 0.000000 0.000000 0.000000 0.000000 0.000000 -0.000000 0.000000 0.000000 -2.863721 -1.137762 -0.019085 -4.353832 4.132609 1.177644 4.550027 -3.235545 0.246938 0.000000 0.000000 0.000000 0.000000 0.000000 0.000000 -0.000000 0.000000 0.000000 -0.000000 0.000000 0.000000 -0.000000 0.000000 0.000000 2.298291 -0.442005 -0.173906 0.000000 0.000000 0.000000 0.000000 0.000000 0.000000 0.891830 -0.958188 29.922790 -0.225477 0.982557 -0.220350 -0.922542 -1.991191 0.681535 0.000000 0.000000 0.000000 0.874071 -0.688655 29.740108 -0.346875 0.738998 -0.039117 -0.415967 -0.731867 0.576831 0.000000 0.000000 0.000000
32.894228 60.292782 368.649679 -0.115300 0.546074 -29.724457 0.370896 -0.417048 29.726357 -0.000000 0.000000 0.000000 -0.600195 0.795061 -0.533324 0.000000 0.000000 0.000000 0.939672 -0.918128 -0.198789 -6.754434 -1.177232 0.379819 -8.106520 7.517457 2.461649 8.713930 -6.667586 0.411003 0.000000 0.000000 0.000000 0.000000 0.000000 0.000000 0.319415 -1.121093 -0.140375 -0.322222 1.120290 0.146650 -0.000000 0.000000 0.000000 4.189519 -0.830564 -0.302685 0.000000 0.000000 0.000000 0.000000 0.000000 0.000000 1.594535 -1.806152 30.164692 -0.360283 1.815628 -0.408886 -1.642727 -3.590861 1.197537 0.000000 0.000000 0.000000 1.581777 -1.340353 29.834188 -0.591315 1.403127 -0.082020 -0.812545 -1.450181 1.124011 0.000000 0.000000 0.000000
32.842351 60.463259 368.364819 -0.133704 0.760730 -29.725760 0.493337 -0.594318 29.729206 -0.000000 0.000000 0.000000 -0.795439 1.294144 -0.825443 0.000000 0.000000 0.000000 1.160011 -1.555825 -0.126756 -10.003583 -1.266906 0.698171 -11.210374 10.188530 3.634194 12.566629 -10.304711 0.373468 0.000000 0.000000 0.000000 0.000000 0.000000 0.000000 0.404429 -1.476911 -0.183347 -0.409288 1.475572 0.193831 -0.000000 0.000000 0.000000 5.644312 -1.157291 -0.391423 0.000000 0.000000 0.000000 0.000000 0.000000 0.000000 2.112077 -2.551464 30.352218 0.485438 2.477229 -0.471768 -3.041399 -4.685927 1.401935 0.000000 0.000000 0.000000 2.118602 -1.954520 29.908967 -0.297518 2.742019 -0.162962 -1.620034 -2.905041 1.634400 0.000000 0.000000 0.000000
32.824323 60.602937 368.121107 -0.125953 0.936347 -29.696715 0.069918 -0.057980 29.697109 0.093951 -0.851343 0.001537 -0.920693 1.858821 -1.134653 0.000000 0.000000 0.000000 1.225434 -2.307411 0.051865 -13.152486 -1.011451 1.164330 -13.671705 12.227366 4.524496 16.238575 -14.175272 0.042820 0.000000 0.000000 0.000000 0.000000 0.000000 0.000000 0.439959 -1.695637 -0.209254 -1.508957 1.752006 0.767925 1.061281 -0.071967 -0.512945 6.639535 -1.415810 -0.444910 0.000000 0.000000 0.000000 0.000000 0.000000 0.000000 2.447468 -3.200274 30.481719 0.724221 2.986934 -0.586667 -3.501373 -5.225877 1.523446 0.000000 0.000000 0.000000 2.481096 -2.530390 29.960375 -0.233825 3.371774 -0.225082 -2.071053 -3.709240 2.100879 0.000000 0.000000 0.000000
32.840145 60.711816 367.918544 -0.092092 1.072892 -29.637152 0.057560 -0.069424 29.638329 -0.047382 -0.175242 -0.002972 -0.851744 1.678510 -1.472049 0.000000 0.000000 0.000000 1.268892 -3.979257 0.350320 -16.186272 -0.410175 1.822530 -15.540219 13.729921 5.011126 19.885165 -18.302117 -0.632414 0.000000 0.000000 0.000000 0.000000 0.000000 0.000000 0.550280 -2.585875 -0.209414 -1.921859 1.684669 0.934560 2.549326 1.737966 -1.262621 6.157150 -3.210370 0.312613 0.000000 0.000000 0.000000 0.000000 0.000000 0.000000 2.602810 -3.757287 30.550260 0.996618 3.348496 -0.679396 -3.661112 -5.178178 1.465695 0.000000 0.000000 0.000000 2.666874 -3.066932 29.984649 -0.085038 3.860446 -0.291687 -2.478257 -4.429432 2.526649 0.000000 0.000000 0.000000
33.015861 60.782155 367.830019 0.110390 1.064227 -29.623178 -0.046026 -0.073364 29.625805 -0.090612 -0.141185 -0.001406 -0.872621 2.403034 -1.872020 0.000000 0.000000 0.000000 0.963396 -5.121660 0.749803 -18.861984 0.658788 2.659532 -19.927549 16.366923 7.359925 25.301789 -29.403551 -4.855810 0.000000 0.000000 0.000000 0.000000 0.000000 0.000000 0.402133 -2.514141 -0.198515 -2.414539 1.051276 1.005907 5.303393 6.909906 -2.819575 3.678501 -8.533448 2.050154 0.000000 0.000000 0.000000 0.000000 0.000000 0.000000 1.877266 -4.266049 30.590258 1.881561 3.326540 -0.730095 -3.430411 -4.100895 1.097366 0.000000 0.000000 0.000000 2.133168 -3.444599 30.044429 0.260355 3.886945 -0.399419 -1.883759 -4.132018 0.632862 0.000000 0.000000 0.000000
33.136563 60.825626 367.718262 0.212745 1.134145 -29.486992 -0.070632 -0.099368 29.490847 -0.094188 -0.130632 0.001683 -0.734013 3.146843 -2.251250 0.000000 0.000000 0.000000 0.559254 -6.394688 1.227962 -22.070180 2.362666 4.299810 -19.144391 17.031628 6.651485 27.529772 -37.745603 -9.103164 0.000000 0.000000 0.000000 0.000000 0.000000 0.000000 0.282792 -2.247936 -0.165107 -2.900190 0.517468 1.136356 5.836304 7.514096 -3.042079 4.876321 -9.996899 2.260451 0.000000 0.000000 0.000000 0.000000 0.000000 0.000000 1.537645 -4.724190 30.514840 2.380156 3.371576 -0.781567 -2.804549 -2.452577 0.494833 0.000000 0.000000 0.000000 1.675097 -4.017373 30.018060 1.278011 4.103543 -0.454904 -4.280083 -7.258672 4.733779 0.000000 0.000000 0.000000
33.162484 60.843315 367.599137 0.227567 1.219684 -29.318752 -0.067257 -0.093372 29.323309 -0.111348 -0.109009 0.001735 -0.604405 3.830280 -2.633531 0.000000 0.000000 0.000000 0.028420 -7.704136 1.782842 -24.916364 3.885804 5.831418 -18.231146 17.079338 5.047986 31.372654 -39.007795 -8.819507 0.000000 0.000000 0.000000 0.000000 0.000000 0.000000 -0.012030 -1.062177 -0.011022 -3.145798 -0.929859 1.096048 7.188965 9.265255 -3.802019 2.321757 -10.463710 2.565934 0.000000 0.000000 0.000000 0.000000 0.000000 0.000000 1.521758 -5.023071 30.399444 2.538930 3.432481 -0.813342 -1.874864 -0.328815 -0.266196 0.000000 0.000000 0.000000 1.579154 -4.481370 29.932382 1.901866 4.417431 -0.497478 -6.067571 -9.874810 8.272040 0.000000 0.000000 0.000000
33.175405 60.860832 367.509586 0.216036 1.259289 -29.118119 -0.054401 -0.080414 29.123245 -0.136863 -0.071754 0.000285 -0.474296 4.329724 -2.910928 0.000000 0.000000 0.000000 -0.595462 -8.903635 2.354611 -26.883680 5.456313 7.259735 -17.976571 15.298367 0.506898 34.869475 -34.605378 -5.229376 0.000000 0.000000 0.000000 0.000000 0.000000 0.000000 -0.055773 -2.087475 -0.122778 -3.405901 0.549368 1.629141 7.155971 6.802989 -3.730893 2.086676 -7.838997 2.092163 0.000000 0.000000 0.000000 0.000000 0.000000 0.000000 1.790105 -5.064018 30.229356 2.111244 3.527189 -0.832416 -0.517770 2.090747 -1.099817 0.000000 0.000000 0.000000 1.963910 -4.723330 29.765947 1.550072 4.838809 -0.547375 -6.735415 -11.424435 10.840870 0.000000 0.000000 0.000000
